Coordinates
version=1
nRows=17
nColumns=24
inDegrees=yes

Units are S.I. units (second, meters, Newtons, ...)
Angles are in degrees.

endheader
time	pelvis_tilt	pelvis_list	pelvis_rotation	pelvis_tx	pelvis_ty	pelvis_tz	hip_flexion_r	hip_adduction_r	hip_rotation_r	knee_angle_r	ankle_angle_r	subtalar_angle_r	mtp_angle_r	hip_flexion_l	hip_adduction_l	hip_rotation_l	knee_angle_l	ankle_angle_l	subtalar_angle_l	mtp_angle_l	lumbar_extension	lumbar_bending	lumbar_rotation
      4.92000000	     -1.87236961	      2.18937313	     -0.30668800	      0.05332326	      0.94190110	      0.02584636	     -1.29710382	      2.54601465	     10.45307259	    -20.91133198	     25.96312685	      0.00000000	      0.00000000	     21.81808447	      1.04344292	     -4.48891027	      4.10879399	      3.61405665	      0.00000000	      0.00000000	     -7.53673984	      0.87698939	      6.44502682
      4.93000000	     -1.93892011	      2.26786486	     -0.80126367	      0.05384497	      0.94090799	      0.02529908	     -1.86916929	      2.32312733	     10.73843683	    -20.67556778	     26.06500047	      0.00000000	      0.00000000	     21.97895159	      1.08048668	     -4.35335376	      3.13108044	      3.54787032	      0.00000000	      0.00000000	     -7.46369957	      0.69443519	      6.75639014
      4.94000000	     -1.95022932	      2.34223515	     -1.30239204	      0.05451413	      0.94002121	      0.02480020	     -2.57974484	      2.10225489	     11.22681339	    -20.30105843	     26.11784913	      0.00000000	      0.00000000	     22.21138896	      1.13040995	     -4.48724762	      1.84343587	      3.76071630	      0.00000000	      0.00000000	     -7.44578291	      0.50318723	      7.02617507
      4.95000000	     -2.05215173	      2.38875549	     -1.82704387	      0.05535462	      0.93909730	      0.02407727	     -3.07537667	      1.85986135	     11.32947622	    -20.13944680	     26.10411680	      0.00000000	      0.00000000	     22.30996795	      1.14904721	     -4.30739579	      0.98948511	      3.41585110	      0.00000000	      0.00000000	     -7.30514066	      0.36165134	      7.42360028
      4.96000000	     -2.11767759	      2.50229599	     -2.29658424	      0.05627409	      0.93833963	      0.02349130	     -3.73454054	      1.55947503	     11.73967211	    -19.74445583	     25.93693742	      0.00000000	      0.00000000	     22.57828890	      1.25622585	     -4.52450740	     -0.26490034	      2.95398349	      0.00000000	      0.00000000	     -7.20673537	      0.10919431	      7.67771753
      4.97000000	     -2.21880095	      2.56412695	     -2.78496873	      0.05738062	      0.93760739	      0.02264616	     -4.24472417	      1.27082746	     11.82895233	    -19.57335979	     25.82025990	      0.00000000	      0.00000000	     22.70746584	      1.30835237	     -4.41245853	     -1.17603522	      2.40121109	      0.00000000	      0.00000000	     -7.04784496	     -0.05664292	      8.11661002
      4.98000000	     -2.31001178	      2.66593138	     -3.27557479	      0.05849306	      0.93704253	      0.02180214	     -4.77172427	      0.91997354	     11.97863040	    -19.34603681	     25.60391901	      0.00000000	      0.00000000	     22.91280167	      1.38975063	     -4.40964591	     -2.22738020	      1.68946737	      0.00000000	      0.00000000	     -6.90768588	     -0.27617669	      8.43530938
      4.99000000	     -2.40471075	      2.80252743	     -3.64503235	      0.05972319	      0.93659664	      0.02097524	     -5.31568292	      0.56506696	     12.16963829	    -19.10343593	     25.21919534	      0.00000000	      0.00000000	     23.17667092	      1.53657896	     -4.54503534	     -3.35881750	      0.84480653	      0.00000000	      0.00000000	     -6.74645548	     -0.55797835	      8.68898418
      5.00000000	     -2.54642372	      2.93991077	     -3.95147001	      0.06110699	      0.93627164	      0.02013248	     -5.80155396	      0.20736376	     12.28026992	    -18.87885083	     24.60006711	      0.00000000	      0.00000000	     23.45664250	      1.69111933	     -4.75690013	     -4.41095839	     -0.04995908	      0.00000000	      0.00000000	     -6.51357523	     -0.84719105	      8.87151908
      5.01000000	     -2.64342387	      3.05068033	     -4.31623722	      0.06251749	      0.93612286	      0.01916517	     -6.23660105	     -0.14932531	     12.30111700	    -18.81913444	     24.22039016	      0.00000000	      0.00000000	     23.62265274	      1.79230257	     -4.55654131	     -5.37169628	     -0.70364256	      0.00000000	      0.00000000	     -6.33361766	     -1.09989521	      9.23794965
      5.02000000	     -2.74245467	      3.24811504	     -4.49475953	      0.06399879	      0.93612459	      0.01813389	     -6.68118219	     -0.55370808	     12.37257980	    -18.76328485	     23.50507993	      0.00000000	      0.00000000	     23.92864634	      2.03129704	     -4.46525633	     -6.59122292	     -1.43129138	      0.00000000	      0.00000000	     -6.13554270	     -1.46159850	      9.34953920
      5.03000000	     -2.85983108	      3.42053291	     -4.67312797	      0.06556395	      0.93625791	      0.01706374	     -7.05754137	     -0.93996088	     12.31767236	    -18.77495965	     22.75972158	      0.00000000	      0.00000000	     24.18022745	      2.24173704	     -4.19217708	     -7.71374445	     -1.92991516	      0.00000000	      0.00000000	     -5.90275516	     -1.80050857	      9.55260782
      5.04000000	     -3.20931655	      3.46797317	     -4.45815416	      0.06727892	      0.93618250	      0.01552238	     -7.24915455	     -1.13238173	     11.93116909	    -18.73389014	     21.49200834	      0.00000000	      0.00000000	     24.86819828	      2.46583370	     -3.58465778	     -9.27498357	     -1.84856003	      0.00000000	      0.00000000	     -5.38603972	     -1.95140471	      9.37220904
      5.05000000	     -3.34618666	      3.63753090	     -4.48203397	      0.06900930	      0.93654580	      0.01420310	     -7.50578979	     -1.48433808	     11.77129847	    -18.94437203	     20.49402816	      0.00000000	      0.00000000	     25.15644115	      2.75450723	     -3.11052840	    -10.54835851	     -1.79307766	      0.00000000	      0.00000000	     -5.10089807	     -2.27203535	      9.49984949
      5.06000000	     -3.50534694	      3.78581876	     -4.39481814	      0.07084420	      0.93699236	      0.01269757	     -7.71277960	     -1.79397107	     11.53944303	    -19.20371422	     19.28947974	      0.00000000	      0.00000000	     25.43745642	      3.08575188	     -2.47203132	    -11.82665552	     -1.43108585	      0.00000000	      0.00000000	     -4.76709799	     -2.55506535	      9.55148406
      5.07000000	     -3.56070731	      3.98992000	     -4.44750786	      0.07264311	      0.93775177	      0.01135463	     -7.91409499	     -2.15657235	     11.68255165	    -19.64303389	     18.31691571	      0.00000000	      0.00000000	     25.41589381	      3.44583243	     -1.78986277	    -12.76040369	     -1.28118790	      0.00000000	      0.00000000	     -4.54305664	     -2.91209209	      9.74768948
      5.08000000	     -3.62701616	      4.21911213	     -4.33508981	      0.07455692	      0.93858771	      0.00971898	     -8.01608907	     -2.52977661	     11.52124643	    -20.24351174	     16.77161947	      0.00000000	      0.00000000	     25.41206040	      3.92076239	     -1.20685580	    -13.76919524	     -0.65772826	      0.00000000	      0.00000000	     -4.28963934	     -3.27907441	      9.82269026
